<?xml version="1.0" encoding="utf-8"?>
<!-- Generator: Adobe Illustrator 26.0.2, SVG Export Plug-In . SVG Version: 6.00 Build 0)  -->
<svg version="1.1" id="Layer_1" xmlns="http://www.w3.org/2000/svg" xmlns:xlink="http://www.w3.org/1999/xlink" x="0px" y="0px"
	 viewBox="0 0 360.1 70.8" style="enable-background:new 0 0 360.1 70.8;" xml:space="preserve">
<style type="text/css">
	.st0{fill:#FFFFFF;}
</style>
<g>
	<path class="st0" d="M13,42.4c-2.6,0-5-0.8-7.3-2.3s-4-3.7-5.3-6.5l7.2-3.2c0.7,1.3,1.5,2.3,2.4,3.1c0.9,0.7,1.9,1.1,3,1.1
		c0.6,0,1.1-0.1,1.7-0.3c0.5-0.2,1-0.5,1.4-0.9c0.4-0.4,0.8-1.1,1-1.9c0.2-0.8,0.4-1.8,0.4-3V5.7h8.2v23.2c0,2.6-0.4,4.8-1.2,6.5
		c-0.8,1.7-1.8,3.1-3.1,4.1s-2.6,1.7-4.1,2.2S14.4,42.4,13,42.4z"/>
	<path class="st0" d="M40.8,42.4c-2.9,0-5.2-0.8-6.9-2.3s-2.5-3.6-2.5-6.2c0-1.7,0.5-3.2,1.4-4.5s2.2-2.3,3.8-3s3.5-1.1,5.6-1.1
		c1.1,0,2.1,0.1,3.2,0.2c1,0.2,1.9,0.4,2.6,0.7v-1.5c0-1.1-0.4-2-1.1-2.6c-0.8-0.6-1.8-0.9-3.2-0.9c-1.3,0-2.6,0.2-4,0.7
		s-2.8,1.2-4.3,2.1L33,18.1c1.6-1.1,3.4-1.9,5.4-2.5s4-0.9,6-0.9c3.8,0,6.6,0.9,8.5,2.6s2.8,4.3,2.8,7.8v16.6H48v-1.9
		c-0.8,0.8-1.8,1.5-3,1.9C43.7,42.2,42.3,42.4,40.8,42.4z M42.8,35.9c1,0,1.9-0.1,2.7-0.5c0.8-0.3,1.6-0.7,2.3-1.3V32
		c-0.6-0.2-1.3-0.4-2.1-0.5s-1.5-0.2-2.3-0.2c-1.4,0-2.5,0.2-3.3,0.7S39,33,39,33.8c0,0.7,0.3,1.2,1,1.6
		C40.6,35.8,41.6,35.9,42.8,35.9z"/>
	<path class="st0" d="M73.7,42.4c-2.5,0-4.7-0.6-6.6-1.7c-1.9-1.1-3.3-2.7-4.3-4.8s-1.5-4.5-1.5-7.3s0.5-5.2,1.5-7.3
		s2.5-3.7,4.3-4.8c1.9-1.1,4-1.7,6.6-1.7c3,0,5.5,0.7,7.5,2.1s3.4,3.5,4.3,6.3l-7.4,2.4c-0.4-1.1-1-1.9-1.7-2.5s-1.6-0.9-2.5-0.9
		c-1.4,0-2.5,0.6-3.4,1.8c-0.9,1.2-1.3,2.7-1.3,4.6s0.4,3.4,1.3,4.6s2,1.8,3.3,1.8c1,0,1.9-0.3,2.7-0.9c0.7-0.6,1.3-1.6,1.7-2.8
		l7.4,2.1c-0.9,3-2.3,5.3-4.2,6.8C79.3,41.6,76.8,42.4,73.7,42.4z"/>
	<path class="st0" d="M91.9,41.8V8.2l7.7-3.6v17.3l6.5-6.4h9.1l-8.1,7.8l9.5,18.5h-8.4l-6.9-13l-1.8,1.6v11.4H91.9z"/>
	<path class="st0" d="M134.9,41.8v-36h13.7c3.2,0,5.9,0.5,8.1,1.5c2.2,1,4,2.4,5.5,4.1c1.4,1.7,2.4,3.7,3.1,5.8c0.7,2.1,1,4.3,1,6.6
		c0,2-0.3,4.1-0.9,6.2c-0.6,2.1-1.6,4.1-3,5.8c-1.4,1.8-3.2,3.2-5.5,4.3s-5.1,1.6-8.4,1.6h-13.6V41.8z M143.1,34h6.1
		c1.6,0,2.9-0.3,4-0.9c1.1-0.6,2-1.4,2.7-2.4s1.2-2.1,1.5-3.3c0.3-1.2,0.5-2.4,0.5-3.6s-0.2-2.5-0.5-3.7s-0.8-2.3-1.5-3.3
		s-1.5-1.8-2.5-2.4c-1-0.6-2.2-0.9-3.6-0.9h-6.7V34z"/>
	<path class="st0" d="M182.9,42.4c-2.6,0-4.9-0.5-6.7-1.6c-1.9-1.1-3.3-2.7-4.3-4.7s-1.5-4.5-1.5-7.4c0-2.8,0.5-5.2,1.5-7.3
		s2.5-3.7,4.4-4.8c1.9-1.1,4.1-1.7,6.7-1.7c2.2,0,4.2,0.5,6,1.4c1.8,0.9,3.2,2.3,4.3,4.1c1.1,1.8,1.6,4.2,1.6,7c0,0.5,0,1.1,0,1.8
		s-0.1,1.4-0.2,2.1H178c0,0.9,0.2,1.8,0.6,2.5c0.4,0.7,1,1.2,1.8,1.6c0.8,0.4,1.6,0.6,2.7,0.6c1.3,0,2.5-0.2,3.4-0.6
		s1.8-1.1,2.6-2.1l4.4,4.4c-1.2,1.5-2.7,2.7-4.4,3.6S185.2,42.4,182.9,42.4z M178,25.4h9.5c-0.1-0.9-0.4-1.7-0.8-2.3
		c-0.4-0.6-0.9-1.1-1.6-1.4c-0.7-0.3-1.4-0.5-2.4-0.5c-1.3,0-2.3,0.4-3.2,1.1C178.7,23.2,178.1,24.2,178,25.4z"/>
	<path class="st0" d="M209.6,42.4c-2.2,0-4.3-0.5-6.3-1.4s-3.5-2.2-4.7-3.7l4.9-4.1c0.9,0.9,1.9,1.6,3,2.1s2.2,0.8,3.3,0.8
		s2-0.2,2.6-0.5s0.9-0.8,0.9-1.5c0-0.4-0.1-0.7-0.4-1c-0.3-0.3-0.8-0.6-1.7-1s-2-0.8-3.6-1.4c-3-1.1-5.1-2.2-6.3-3.5
		s-1.8-2.9-1.8-4.8c0-2.2,0.9-4.1,2.7-5.4c1.8-1.4,4.2-2.1,7.1-2.1c2,0,3.8,0.4,5.5,1.1s3.2,1.9,4.4,3.3l-4.9,4.1
		c-1.5-1.5-3.2-2.2-5.1-2.2c-0.8,0-1.5,0.2-2.1,0.5c-0.5,0.3-0.8,0.7-0.8,1.1c0,0.5,0.3,0.9,1,1.3s1.9,0.9,3.8,1.4
		c2.1,0.6,3.8,1.3,5.1,2.1c1.3,0.8,2.3,1.8,2.9,2.8c0.6,1.1,0.9,2.3,0.9,3.8c0,2.6-0.9,4.6-2.8,6C215.5,41.6,212.9,42.4,209.6,42.4z
		"/>
	<path class="st0" d="M226.7,41.8V15.5h7.7v2.4c0.9-1.1,1.8-1.9,2.8-2.3c1-0.5,2.1-0.7,3.3-0.7c1.6,0,2.9,0.3,3.9,0.9
		c1,0.6,1.8,1.5,2.4,2.8c0.9-1.2,2.1-2.1,3.5-2.7c1.4-0.6,3-0.9,4.8-0.9c3.5,0,6,0.9,7.7,2.6c1.6,1.7,2.5,4.5,2.5,8.2V42h-7.7V28.4
		c0-2.2-0.3-3.8-0.9-4.7s-1.6-1.4-2.9-1.4c-1,0-1.7,0.2-2.3,0.6s-1,1-1.2,1.9s-0.4,2-0.4,3.4v13.6h-7.7V28.4c0-2.2-0.3-3.8-0.9-4.7
		c-0.6-0.9-1.6-1.4-2.9-1.4c-1.4,0-2.5,0.4-3,1.3c-0.6,0.9-0.9,2.4-0.9,4.6v13.6C234.5,41.8,226.7,41.8,226.7,41.8z"/>
	<path class="st0" d="M283.5,42.4c-3.8,0-6.8-1.2-8.9-3.7c-2.2-2.4-3.3-5.8-3.3-10.1c0-2.8,0.5-5.3,1.5-7.3c1-2.1,2.4-3.7,4.2-4.8
		c1.8-1.1,4-1.7,6.5-1.7s4.6,0.6,6.4,1.7s3.2,2.7,4.2,4.8s1.5,4.5,1.5,7.3s-0.5,5.3-1.5,7.3s-2.4,3.6-4.2,4.7
		C288.2,41.8,286.1,42.4,283.5,42.4z M283.5,34.9c1.4,0,2.5-0.5,3.3-1.6s1.1-2.6,1.1-4.6s-0.4-3.6-1.2-4.7c-0.8-1.1-1.9-1.7-3.3-1.7
		s-2.5,0.6-3.3,1.7s-1.2,2.7-1.2,4.6s0.4,3.5,1.2,4.6S282.2,34.9,283.5,34.9z"/>
	<path class="st0" d="M301.4,41.8V15.5h7.7v2.4c0.9-1,1.9-1.8,3.1-2.3s2.6-0.8,4.1-0.8c2.8,0,5,0.9,6.6,2.6s2.4,4.1,2.4,7.1v17.2
		h-7.7V28.3c0-2.2-0.3-3.7-0.9-4.7c-0.6-0.9-1.7-1.4-3.2-1.4c-1.6,0-2.7,0.5-3.4,1.4c-0.7,0.9-1.1,2.4-1.1,4.5v13.5h-7.6V41.8z"/>
	<path class="st0" d="M342.3,42.4c-3.4,0-6.1-1.2-8-3.6c-1.9-2.4-2.8-5.8-2.8-10.2c0-2.7,0.5-5.1,1.4-7.1s2.2-3.7,3.8-4.9
		c1.6-1.2,3.5-1.8,5.7-1.8s3.9,0.9,5.1,2.6V8l7.7-3.4v37.2h-7.7v-2.2C346.6,41.4,344.9,42.4,342.3,42.4z M343.6,34.9
		c1,0,1.8-0.1,2.4-0.3s1.1-0.6,1.5-1.1V24c-0.4-0.5-1-0.9-1.7-1.2c-0.7-0.3-1.4-0.4-2.2-0.4c-1.4,0-2.5,0.5-3.3,1.6
		s-1.2,2.6-1.2,4.7c0,1.4,0.2,2.6,0.5,3.5c0.3,0.9,0.8,1.6,1.5,2.1C341.8,34.7,342.7,34.9,343.6,34.9z"/>
</g>
<g>
	<path class="st0" d="M51.6,62.3c-0.9,0-1.7-0.2-2.4-0.7s-1.2-1.1-1.5-1.9c-0.4-0.8-0.5-1.8-0.5-3s0.2-2.2,0.5-3
		c0.4-0.8,0.9-1.5,1.6-1.9c0.7-0.5,1.5-0.7,2.4-0.7s1.7,0.2,2.4,0.6c0.6,0.4,1.1,1,1.4,1.9l-1.7,0.6c-0.2-0.5-0.4-0.8-0.8-1.1
		s-0.8-0.4-1.2-0.4c-0.9,0-1.5,0.3-2,1s-0.7,1.6-0.7,2.9c0,1.2,0.2,2.2,0.7,2.9s1.1,1,1.9,1c0.5,0,1-0.1,1.4-0.4
		c0.4-0.3,0.6-0.7,0.8-1.2l1.7,0.6c-0.3,0.9-0.7,1.6-1.4,2C53.4,62,52.6,62.3,51.6,62.3z"/>
	<path class="st0" d="M59.2,49.3c-0.3,0-0.6-0.1-0.8-0.3S58,48.5,58,48.2s0.1-0.6,0.3-0.8s0.5-0.3,0.8-0.3s0.6,0.1,0.8,0.3
		s0.3,0.5,0.3,0.8s-0.1,0.6-0.3,0.8S59.5,49.3,59.2,49.3z M58.3,62V51.3h1.8V62H58.3z"/>
	<path class="st0" d="M63.6,62V51.3h1.8v1.1c0.3-0.5,0.7-0.8,1.2-1s1-0.3,1.6-0.3c1.3,0,2.3,0.4,2.9,1.2s0.9,2,0.9,3.6V62h-1.8v-6.5
		c0-0.9-0.2-1.6-0.6-2.1s-1-0.7-1.7-0.7c-0.8,0-1.4,0.2-1.9,0.7s-0.6,1.2-0.6,2.1V62H63.6z"/>
	<path class="st0" d="M79.9,62.3c-1,0-1.8-0.2-2.5-0.7s-1.3-1.1-1.6-2c-0.4-0.8-0.6-1.8-0.6-2.9c0-1.2,0.2-2.2,0.6-3s1-1.5,1.7-1.9
		s1.5-0.7,2.5-0.7c0.8,0,1.5,0.2,2.2,0.5c0.7,0.4,1.2,0.9,1.6,1.7s0.6,1.7,0.6,2.9c0,0.2,0,0.4,0,0.6c0,0.2,0,0.4,0,0.7H77
		c0.1,0.7,0.2,1.2,0.5,1.7s0.6,0.9,1,1.1s0.9,0.4,1.5,0.4c0.5,0,0.9-0.1,1.3-0.2c0.4-0.2,0.8-0.4,1.1-0.7l1.1,1.2
		c-0.4,0.4-0.9,0.7-1.5,1C81.2,62.1,80.6,62.3,79.9,62.3z M76.9,55.8h5.5c0-0.6-0.1-1.2-0.3-1.6c-0.2-0.5-0.5-0.9-0.9-1.1
		c-0.4-0.3-0.9-0.4-1.4-0.4c-0.8,0-1.4,0.3-2,0.8C77.3,53.9,77,54.7,76.9,55.8z"/>
	<path class="st0" d="M87.2,62V51.3H89v1c0.3-0.4,0.7-0.7,1.2-0.9s1-0.3,1.6-0.3s1.2,0.1,1.7,0.4c0.5,0.3,0.9,0.7,1.2,1.2
		c0.3-0.5,0.8-0.9,1.3-1.2s1.1-0.4,1.8-0.4c1.2,0,2.1,0.4,2.8,1.1c0.7,0.7,1,1.7,1,2.9v7h-1.8v-6.5c0-0.9-0.2-1.6-0.6-2.1
		s-0.9-0.7-1.6-0.7c-0.5,0-0.9,0.1-1.2,0.4c-0.3,0.2-0.6,0.6-0.8,1s-0.3,0.9-0.3,1.5V62h-1.8v-6.5c0-0.9-0.2-1.6-0.5-2.1
		c-0.4-0.5-0.9-0.7-1.6-0.7s-1.3,0.2-1.7,0.7s-0.6,1.2-0.6,2V62H87.2z"/>
	<path class="st0" d="M108.2,62.3c-1.2,0-2.1-0.3-2.7-1c-0.7-0.6-1-1.5-1-2.6c0-0.7,0.2-1.3,0.5-1.9s0.8-0.9,1.4-1.2
		s1.3-0.4,2.1-0.4c0.5,0,1,0.1,1.5,0.2c0.5,0.1,0.9,0.3,1.3,0.5V55c0-0.8-0.2-1.4-0.6-1.8c-0.4-0.4-1-0.6-1.8-0.6
		c-0.5,0-1,0.1-1.6,0.3c-0.5,0.2-1.1,0.5-1.5,0.8l-0.5-1.5c0.5-0.4,1.2-0.6,1.8-0.8c0.7-0.2,1.4-0.3,2-0.3c1.3,0,2.2,0.3,2.9,1
		c0.6,0.6,1,1.6,1,2.9v7h-1.7v-1c-0.4,0.4-0.9,0.7-1.4,0.9C109.3,62.1,108.8,62.3,108.2,62.3z M108.5,60.7c0.5,0,1-0.1,1.5-0.4
		c0.5-0.2,0.9-0.6,1.3-1v-1.8c-0.4-0.2-0.8-0.4-1.2-0.5c-0.5-0.1-0.9-0.2-1.3-0.2c-0.8,0-1.4,0.2-1.9,0.5c-0.5,0.4-0.7,0.8-0.7,1.4
		c0,0.6,0.2,1.1,0.6,1.5C107.2,60.5,107.8,60.7,108.5,60.7z"/>
	<path class="st0" d="M118.8,62.3c-0.7,0-1.3-0.2-1.7-0.7c-0.4-0.4-0.6-1.1-0.6-1.9v-6.8h-1.7v-1.6h1.7v-3.5l1.8-0.9v4.4h2.6v1.6
		h-2.6v6.2c0,0.5,0.1,0.9,0.3,1.1s0.5,0.4,0.8,0.4c0.5,0,1-0.2,1.6-0.6l-0.2,1.8c-0.3,0.2-0.6,0.3-1,0.4
		C119.6,62.2,119.2,62.3,118.8,62.3z"/>
	<path class="st0" d="M127.7,62.3c-1.5,0-2.6-0.5-3.5-1.5c-0.8-1-1.3-2.4-1.3-4.1c0-1.2,0.2-2.2,0.6-3s0.9-1.5,1.6-1.9
		c0.7-0.5,1.6-0.7,2.5-0.7c1,0,1.8,0.2,2.5,0.7s1.3,1.1,1.6,1.9c0.4,0.8,0.6,1.8,0.6,3s-0.2,2.2-0.6,3c-0.4,0.8-0.9,1.5-1.6,1.9
		S128.7,62.3,127.7,62.3z M127.7,60.6c0.9,0,1.6-0.3,2.1-1s0.8-1.7,0.8-2.9s-0.3-2.2-0.8-2.9s-1.2-1-2.1-1s-1.6,0.3-2.1,1
		s-0.8,1.7-0.8,2.9s0.3,2.2,0.8,2.9C126.1,60.2,126.8,60.6,127.7,60.6z"/>
	<path class="st0" d="M138.9,66.5L138,65c1-0.1,1.7-0.2,2.3-0.4s1.1-0.5,1.3-0.9c0.3-0.4,0.4-0.8,0.4-1.4V61
		c-0.6,0.9-1.6,1.3-2.8,1.3c-0.9,0-1.7-0.2-2.3-0.7c-0.7-0.5-1.2-1.1-1.5-2c-0.4-0.8-0.5-1.8-0.5-3c0-1.1,0.2-2.1,0.6-3
		c0.4-0.8,0.9-1.5,1.5-1.9c0.7-0.5,1.4-0.7,2.4-0.7c0.5,0,1,0.1,1.5,0.3s0.9,0.5,1.2,0.8v-0.9h1.8v10.4c0,0.8-0.1,1.4-0.3,2
		s-0.5,1.1-0.9,1.5s-0.9,0.7-1.6,0.9C140.5,66.3,139.8,66.4,138.9,66.5z M139.8,60.6c0.5,0,0.9-0.1,1.3-0.4c0.4-0.3,0.8-0.6,1-1.1
		v-4.9c-0.2-0.4-0.6-0.8-1-1c-0.5-0.3-0.9-0.4-1.3-0.4c-0.9,0-1.7,0.3-2.2,1s-0.8,1.6-0.8,2.9c0,0.8,0.1,1.5,0.4,2.1s0.6,1,1,1.4
		C138.7,60.4,139.2,60.6,139.8,60.6z"/>
	<path class="st0" d="M147.6,62V51.3h1.8v1.4c0.2-0.5,0.6-1,1-1.2c0.4-0.3,0.9-0.4,1.5-0.4c0.7,0,1.2,0.2,1.7,0.5l-0.3,1.7
		c-0.2-0.2-0.5-0.3-0.7-0.4c-0.2-0.1-0.5-0.1-0.8-0.1c-0.5,0-0.9,0.1-1.3,0.4c-0.4,0.3-0.6,0.6-0.8,1.1s-0.3,1-0.3,1.6v6h-1.8V62z"
		/>
	<path class="st0" d="M158.5,62.3c-1.2,0-2.1-0.3-2.7-1c-0.7-0.6-1-1.5-1-2.6c0-0.7,0.2-1.3,0.5-1.9s0.8-0.9,1.4-1.2
		c0.6-0.3,1.3-0.4,2.1-0.4c0.5,0,1,0.1,1.5,0.2c0.5,0.1,0.9,0.3,1.3,0.5V55c0-0.8-0.2-1.4-0.6-1.8c-0.4-0.4-1-0.6-1.8-0.6
		c-0.5,0-1,0.1-1.6,0.3c-0.5,0.2-1.1,0.5-1.5,0.8l-0.5-1.5c0.5-0.4,1.2-0.6,1.8-0.8c0.7-0.2,1.4-0.3,2-0.3c1.3,0,2.2,0.3,2.9,1
		c0.6,0.6,1,1.6,1,2.9v7h-1.7v-1c-0.4,0.4-0.9,0.7-1.4,0.9C159.6,62.1,159,62.3,158.5,62.3z M158.7,60.7c0.5,0,1-0.1,1.5-0.4
		c0.5-0.2,0.9-0.6,1.3-1v-1.8c-0.4-0.2-0.8-0.4-1.2-0.5c-0.5-0.1-0.9-0.2-1.3-0.2c-0.8,0-1.4,0.2-1.9,0.5c-0.5,0.4-0.7,0.8-0.7,1.4
		c0,0.6,0.2,1.1,0.6,1.5C157.5,60.5,158,60.7,158.7,60.7z"/>
	<path class="st0" d="M166.7,66.3v-15h1.8v0.9c0.8-0.8,1.7-1.2,2.8-1.2c0.9,0,1.7,0.2,2.4,0.7s1.2,1.1,1.5,1.9
		c0.4,0.8,0.5,1.8,0.5,3s-0.2,2.1-0.5,3c-0.4,0.8-0.9,1.5-1.5,2c-0.7,0.5-1.4,0.7-2.3,0.7c-0.6,0-1.1-0.1-1.5-0.3s-0.9-0.5-1.2-1
		v4.4L166.7,66.3z M171,60.6c0.9,0,1.6-0.3,2.1-1s0.7-1.6,0.7-2.9c0-1.2-0.3-2.2-0.8-2.9s-1.2-1.1-2-1.1c-0.5,0-1,0.1-1.5,0.4
		c-0.4,0.3-0.8,0.6-1.1,1.1v5c0.4,0.5,0.8,0.8,1.2,1.1C170.1,60.4,170.5,60.6,171,60.6z"/>
	<path class="st0" d="M178.5,62V47.7l1.8-0.8v5.5c0.3-0.5,0.7-0.8,1.2-1s1-0.3,1.6-0.3c0.9,0,1.7,0.2,2.2,0.6c0.6,0.4,1,0.9,1.2,1.7
		c0.3,0.7,0.4,1.6,0.4,2.6v6h-1.8v-6.5c0-0.8-0.2-1.5-0.6-2c-0.4-0.5-1-0.8-1.7-0.8c-0.8,0-1.4,0.2-1.9,0.7s-0.6,1.2-0.6,2.1V62
		H178.5z"/>
	<path class="st0" d="M194.8,62.3c-1,0-1.8-0.2-2.5-0.7s-1.3-1.1-1.6-2c-0.4-0.8-0.6-1.8-0.6-2.9c0-1.2,0.2-2.2,0.6-3
		c0.4-0.8,1-1.5,1.7-1.9s1.5-0.7,2.5-0.7c0.8,0,1.5,0.2,2.2,0.5c0.7,0.4,1.2,0.9,1.6,1.7c0.4,0.8,0.6,1.7,0.6,2.9c0,0.2,0,0.4,0,0.6
		c0,0.2,0,0.4,0,0.7H192c0.1,0.7,0.2,1.2,0.5,1.7s0.6,0.9,1,1.1s0.9,0.4,1.5,0.4c0.5,0,0.9-0.1,1.3-0.2c0.4-0.2,0.8-0.4,1.1-0.7
		l1.1,1.2c-0.4,0.4-0.9,0.7-1.5,1C196.2,62.1,195.5,62.3,194.8,62.3z M191.9,55.8h5.5c0-0.6-0.1-1.2-0.3-1.6
		c-0.2-0.5-0.5-0.9-0.9-1.1c-0.4-0.3-0.9-0.4-1.4-0.4c-0.8,0-1.4,0.3-2,0.8C192.2,53.9,191.9,54.7,191.9,55.8z"/>
	<path class="st0" d="M202.2,62V51.3h1.8v1.4c0.2-0.5,0.6-1,1-1.2c0.4-0.3,0.9-0.4,1.5-0.4c0.7,0,1.2,0.2,1.7,0.5l-0.3,1.7
		c-0.2-0.2-0.5-0.3-0.7-0.4c-0.2-0.1-0.5-0.1-0.8-0.1c-0.5,0-0.9,0.1-1.3,0.4c-0.4,0.3-0.6,0.6-0.8,1.1s-0.3,1-0.3,1.6v6h-1.8V62z"
		/>
	<path class="st0" d="M218.9,62.3c-0.8,0-1.6-0.2-2.2-0.5c-0.6-0.3-1.1-0.8-1.5-1.4s-0.5-1.3-0.5-2.1c0-0.7,0.2-1.4,0.5-1.9
		s0.7-1,1.2-1.4s1.1-0.8,1.7-1.2c-0.6-0.7-1-1.3-1.3-1.8s-0.4-1-0.4-1.6c0-0.7,0.2-1.2,0.5-1.7s0.7-0.8,1.3-1.1
		c0.5-0.3,1.1-0.4,1.8-0.4s1.2,0.1,1.8,0.4s0.9,0.7,1.2,1.1s0.5,1,0.5,1.7c0,0.8-0.3,1.5-0.8,2.1s-1.2,1.1-2,1.6l2.8,3.3
		c0.2-0.4,0.3-0.8,0.4-1.2c0.1-0.4,0.1-0.7,0.2-1h1.7c0,0.5-0.1,1.1-0.3,1.8c-0.2,0.6-0.4,1.3-0.8,1.9l2.7,3.2H225l-1.4-1.7
		c-0.6,0.6-1.3,1.1-2.1,1.5C220.6,62.1,219.8,62.3,218.9,62.3z M219.2,60.6c0.6,0,1.1-0.1,1.7-0.4c0.6-0.3,1-0.7,1.5-1.2l-3.3-4
		c-0.8,0.5-1.4,1-1.9,1.4c-0.5,0.5-0.7,1.1-0.7,1.7c0,0.7,0.2,1.3,0.7,1.8C217.8,60.3,218.4,60.6,219.2,60.6z M219.6,52.8
		c0.6-0.4,1.1-0.7,1.5-1.1s0.5-0.8,0.5-1.3s-0.2-1-0.5-1.3s-0.8-0.5-1.2-0.5c-0.5,0-0.9,0.1-1.2,0.4s-0.5,0.7-0.5,1.1
		c0,0.4,0.1,0.8,0.4,1.2C218.8,51.8,219.2,52.3,219.6,52.8z"/>
	<path class="st0" d="M238.2,62.3c-1.4,0-2.4-0.5-3.2-1.5s-1.2-2.4-1.2-4.1c0-1.1,0.2-2.1,0.5-3c0.4-0.8,0.9-1.5,1.5-1.9
		c0.7-0.5,1.4-0.7,2.4-0.7c1.1,0,2,0.3,2.7,1v-4.3l1.8-0.9V62h-1.8v-0.8C240.2,61.9,239.3,62.3,238.2,62.3z M238.5,60.6
		c0.5,0,1-0.1,1.4-0.4s0.8-0.6,1.1-1.1v-5c-0.3-0.4-0.6-0.8-1.1-1s-0.9-0.4-1.4-0.4c-0.9,0-1.6,0.3-2.1,1s-0.7,1.6-0.7,2.9
		c0,0.8,0.1,1.5,0.4,2s0.6,1,1,1.4C237.4,60.4,237.9,60.6,238.5,60.6z"/>
	<path class="st0" d="M247.2,49.3c-0.3,0-0.6-0.1-0.8-0.3s-0.3-0.5-0.3-0.8s0.1-0.6,0.3-0.8s0.5-0.3,0.8-0.3s0.6,0.1,0.8,0.3
		s0.3,0.5,0.3,0.8s-0.1,0.6-0.3,0.8S247.5,49.3,247.2,49.3z M246.3,62V51.3h1.8V62H246.3z"/>
	<path class="st0" d="M251.6,62V51.3h1.8v1.4c0.2-0.5,0.6-1,1-1.2c0.4-0.3,0.9-0.4,1.5-0.4c0.7,0,1.2,0.2,1.7,0.5l-0.3,1.7
		c-0.2-0.2-0.5-0.3-0.7-0.4c-0.2-0.1-0.5-0.1-0.8-0.1c-0.5,0-0.9,0.1-1.3,0.4c-0.4,0.3-0.6,0.6-0.8,1.1s-0.3,1-0.3,1.6v6h-1.8V62z"
		/>
	<path class="st0" d="M263.3,62.3c-1,0-1.8-0.2-2.5-0.7s-1.3-1.1-1.6-2c-0.4-0.8-0.6-1.8-0.6-2.9c0-1.2,0.2-2.2,0.6-3s1-1.5,1.7-1.9
		s1.5-0.7,2.5-0.7c0.8,0,1.5,0.2,2.2,0.5s1.2,0.9,1.6,1.7s0.6,1.7,0.6,2.9c0,0.2,0,0.4,0,0.6c0,0.2,0,0.4,0,0.7h-7.3
		c0.1,0.7,0.2,1.2,0.5,1.7s0.6,0.9,1,1.1s0.9,0.4,1.5,0.4c0.5,0,0.9-0.1,1.3-0.2c0.4-0.2,0.8-0.4,1.1-0.7L267,61
		c-0.4,0.4-0.9,0.7-1.5,1S264.1,62.3,263.3,62.3z M260.4,55.8h5.5c0-0.6-0.1-1.2-0.3-1.6s-0.5-0.9-0.9-1.1s-0.9-0.4-1.4-0.4
		c-0.8,0-1.4,0.3-2,0.8S260.5,54.7,260.4,55.8z"/>
	<path class="st0" d="M274.7,62.3c-0.9,0-1.7-0.2-2.4-0.7c-0.7-0.5-1.2-1.1-1.5-1.9c-0.4-0.8-0.5-1.8-0.5-3s0.2-2.2,0.5-3
		c0.4-0.8,0.9-1.5,1.6-1.9c0.7-0.5,1.5-0.7,2.4-0.7s1.7,0.2,2.4,0.6c0.6,0.4,1.1,1,1.4,1.9l-1.7,0.6c-0.2-0.5-0.4-0.8-0.8-1.1
		c-0.3-0.2-0.8-0.4-1.2-0.4c-0.9,0-1.5,0.3-2,1s-0.7,1.6-0.7,2.9c0,1.2,0.2,2.2,0.7,2.9s1.1,1,1.9,1c0.5,0,1-0.1,1.4-0.4
		c0.4-0.3,0.6-0.7,0.8-1.2l1.7,0.6c-0.3,0.9-0.7,1.6-1.4,2C276.5,62,275.7,62.3,274.7,62.3z"/>
	<path class="st0" d="M284.2,62.3c-0.7,0-1.3-0.2-1.7-0.7c-0.4-0.4-0.6-1.1-0.6-1.9v-6.8h-1.7v-1.6h1.7v-3.5l1.8-0.9v4.4h2.6v1.6
		h-2.6v6.2c0,0.5,0.1,0.9,0.3,1.1s0.5,0.4,0.8,0.4c0.5,0,1-0.2,1.6-0.6l-0.2,1.8c-0.3,0.2-0.6,0.3-1,0.4
		C284.9,62.2,284.5,62.3,284.2,62.3z"/>
	<path class="st0" d="M293,62.3c-1.5,0-2.6-0.5-3.5-1.5c-0.8-1-1.3-2.4-1.3-4.1c0-1.2,0.2-2.2,0.6-3s0.9-1.5,1.6-1.9
		c0.7-0.5,1.6-0.7,2.5-0.7c1,0,1.8,0.2,2.5,0.7s1.3,1.1,1.6,1.9c0.4,0.8,0.6,1.8,0.6,3s-0.2,2.2-0.6,3s-0.9,1.5-1.6,1.9
		C294.8,62,294,62.3,293,62.3z M293,60.6c0.9,0,1.6-0.3,2.1-1s0.8-1.7,0.8-2.9s-0.3-2.2-0.8-2.9s-1.2-1-2.1-1s-1.6,0.3-2.1,1
		s-0.8,1.7-0.8,2.9s0.3,2.2,0.8,2.9S292.1,60.6,293,60.6z"/>
	<path class="st0" d="M300.5,62V51.3h1.8v1.4c0.2-0.5,0.6-1,1-1.2c0.4-0.3,0.9-0.4,1.5-0.4c0.7,0,1.2,0.2,1.7,0.5l-0.3,1.7
		c-0.2-0.2-0.5-0.3-0.7-0.4c-0.2-0.1-0.5-0.1-0.8-0.1c-0.5,0-0.9,0.1-1.3,0.4c-0.4,0.3-0.6,0.6-0.8,1.1s-0.3,1-0.3,1.6v6h-1.8V62z"
		/>
</g>
</svg>
