<?xml version="1.0" encoding="utf-8"?>
<!-- Generator: Adobe Illustrator 24.1.0, SVG Export Plug-In . SVG Version: 6.00 Build 0)  -->
<svg version="1.1" id="Layer_1" xmlns="http://www.w3.org/2000/svg" xmlns:xlink="http://www.w3.org/1999/xlink" x="0px" y="0px"
	 viewBox="0 0 514.3 70.8" style="enable-background:new 0 0 514.3 70.8;" xml:space="preserve">
<style type="text/css">
	.st0{fill:#1D1D1B;}
</style>
<path class="st0" d="M6.5,70.8c-2.2,0-4.4-0.2-6.5-0.8v-9.2c1.7,0.4,3.5,0.7,5.2,0.7c2.4,0,4.2-0.8,5.2-2.3c1-1.5,1.6-3.9,1.6-7.1
	V3.4h11v48.7c0,6.1-1.4,10.7-4.2,13.9C16.1,69.2,12,70.8,6.5,70.8z"/>
<path class="st0" d="M60.6,55.5l-2.1-5.4h-0.3c-1.5,2-3.4,3.7-5.7,4.8c-2.4,1-5,1.4-7.6,1.3c-3.8,0-6.8-1.1-9-3.3
	c-2.2-2.2-3.3-5.3-3.3-9.3c0-4.2,1.5-7.3,4.4-9.4c3-2,7.4-3.1,13.4-3.3l6.9-0.2v-1.8c0-4-2.1-6.1-6.2-6.1C47.3,23,43.5,24,40,25.7
	l-3.6-7.4c4.7-2.4,10-3.7,15.3-3.6c5.3,0,9.4,1.2,12.3,3.5c2.9,2.3,4.3,5.9,4.3,10.6v26.5H60.6z M57.4,37l-4.2,0.1
	c-3.2,0.1-5.5,0.7-7,1.7c-1.6,1.1-2.5,2.9-2.3,4.8c0,3.1,1.8,4.6,5.3,4.6c2.2,0.1,4.4-0.7,6-2.2c1.5-1.5,2.4-3.6,2.3-5.8L57.4,37z"
	/>
<path class="st0" d="M95.6,56.2C83.2,56.2,77,49.4,77,35.8c0-6.8,1.7-11.9,5.1-15.5s8.2-5.4,14.5-5.4c4.3-0.1,8.5,0.9,12.4,2.7
	l-3.2,8.4c-1.7-0.7-3.3-1.2-4.8-1.7c-1.4-0.4-2.9-0.7-4.4-0.7c-5.7,0-8.5,4-8.5,12.1c0,7.8,2.8,11.7,8.5,11.7c2,0,3.9-0.3,5.8-0.8
	c1.9-0.6,3.7-1.5,5.3-2.6v9.3c-1.6,1.1-3.4,1.8-5.3,2.3C100.1,56,97.8,56.2,95.6,56.2z"/>
<path class="st0" d="M127.4,33.8l4.7-6.1l11.2-12.1h12.3l-15.8,17.3l16.8,22.6h-12.5l-11.5-16.1l-4.7,3.8v12.4h-10.9V0h10.9v24.7
	l-0.6,9.1H127.4z"/>
<path class="st0" d="M225.2,28.9c0,8.6-2.4,15.2-7.3,19.7c-4.9,4.6-11.9,6.8-21.1,6.8H182V3.4h16.4c8.5,0,15.1,2.2,19.8,6.7
	S225.2,20.9,225.2,28.9z M213.8,29.2c0-11.2-4.9-16.8-14.8-16.8h-5.9v33.9h4.7C208.5,46.3,213.8,40.6,213.8,29.2z"/>
<path class="st0" d="M253.2,56.2c-6.4,0-11.4-1.8-15-5.3c-3.6-3.5-5.4-8.5-5.4-15c0-6.7,1.7-11.8,5-15.5c3.3-3.7,7.9-5.5,13.8-5.5
	c5.6,0,10,1.6,13.1,4.8c3.1,3.2,4.7,7.6,4.7,13.3v5.3h-25.7c0,2.7,0.9,5.3,2.8,7.2c1.9,1.8,4.5,2.8,7.2,2.6c2.3,0,4.6-0.2,6.8-0.7
	c2.3-0.6,4.6-1.4,6.7-2.4v8.4c-1.9,1-4,1.7-6.1,2.1C258.5,56,255.9,56.2,253.2,56.2z M251.7,22.6c-2-0.1-4,0.7-5.4,2.2
	c-1.4,1.8-2.2,4-2.2,6.2h15.3c0.1-2.3-0.7-4.5-2.1-6.2C255.8,23.3,253.8,22.5,251.7,22.6z"/>
<path class="st0" d="M306.1,43.6c0,4.1-1.4,7.2-4.3,9.3c-2.8,2.1-7.1,3.2-12.8,3.2c-2.5,0-5-0.2-7.4-0.6c-2-0.4-3.9-0.9-5.7-1.7v-9
	c2.2,1,4.5,1.8,6.8,2.4c2.2,0.6,4.4,0.9,6.7,1c4,0,5.9-1.1,5.9-3.4c0-0.8-0.3-1.5-0.8-2.1c-0.8-0.7-1.7-1.3-2.7-1.8
	c-1.3-0.7-3-1.5-5.1-2.4c-2.4-0.9-4.6-2.1-6.8-3.6c-1.3-1-2.4-2.3-3.1-3.8c-0.7-1.7-1-3.4-1-5.2c-0.1-3.3,1.4-6.4,4.1-8.2
	c2.7-1.9,6.6-2.9,11.7-2.9c4.8,0,9.6,1.1,14,3.1l-3.3,7.8c-2-0.9-3.9-1.5-5.6-2.1c-1.7-0.5-3.5-0.8-5.3-0.8c-3.2,0-4.8,0.9-4.8,2.6
	c0,1.1,0.6,2,1.6,2.5c2.2,1.3,4.4,2.3,6.8,3.2c2.4,0.9,4.7,2.1,6.9,3.5c1.3,1,2.4,2.3,3.2,3.8C305.8,40.2,306.2,41.9,306.1,43.6z"/>
<path class="st0" d="M350.3,55.5h-10.9V32.2c0-2.9-0.5-5-1.4-6.5c-1-1.5-2.8-2.3-4.5-2.2c-2.4-0.2-4.8,1-6.1,3.1
	c-1.3,2-1.9,5.4-1.9,10.1v18.8h-10.9V15.6h8.3l1.5,5.1h0.6c1.1-1.9,2.7-3.3,4.6-4.3c2.2-1.1,4.5-1.6,7-1.5c6,0,10,2,12.1,5.9h1
	c1.1-1.9,2.7-3.4,4.7-4.3c2.2-1,4.6-1.6,7-1.5c4.5,0,7.9,1.2,10.2,3.5c2.3,2.3,3.5,6,3.5,11.1v26h-10.9V32.2c0-2.9-0.5-5-1.5-6.5
	c-1-1.5-2.8-2.3-4.5-2.2c-2.4-0.2-4.6,0.9-6,2.9c-1.3,1.9-2,4.9-2,9.1L350.3,55.5z"/>
<path class="st0" d="M422.5,35.5c0,6.5-1.7,11.6-5.1,15.2c-3.4,3.7-8.2,5.5-14.3,5.5c-3.5,0.1-7-0.8-10.1-2.5
	c-2.9-1.7-5.3-4.2-6.7-7.2c-1.6-3.4-2.4-7.2-2.4-11c0-6.5,1.7-11.6,5.1-15.2c3.4-3.6,8.2-5.4,14.3-5.4c3.5-0.1,7,0.8,10.1,2.5
	c2.9,1.7,5.3,4.1,6.7,7.2C421.8,27.9,422.6,31.7,422.5,35.5z M394.9,35.5c0,3.9,0.7,6.9,2,8.9c1.3,2,3.4,3,6.3,3c2.9,0,5-1,6.3-3
	c1.3-2,1.9-5,1.9-9s-0.6-6.9-1.9-8.9s-3.4-3-6.3-3s-5,1-6.3,2.9S394.9,31.5,394.9,35.5z"/>
<path class="st0" d="M468.3,55.5h-10.9V32.2c0-2.9-0.5-5-1.5-6.5c-1.2-1.5-3-2.3-4.9-2.2c-3,0-5.2,1-6.6,3s-2,5.4-2,10.1v18.8h-10.9
	V15.6h8.3l1.5,5.1h0.6c1.2-1.9,2.9-3.4,5-4.4c2.3-1,4.8-1.5,7.2-1.5c4.7,0,8.2,1.3,10.5,3.8s3.6,6.1,3.6,10.9L468.3,55.5z"/>
<path class="st0" d="M492.1,56.2c-4.4,0.1-8.5-1.9-11-5.5c-2.7-3.6-4-8.7-4-15.1s1.4-11.5,4.1-15.3c2.6-3.6,6.8-5.6,11.2-5.5
	c5,0,8.8,2,11.5,5.9h0.3c-0.5-2.6-0.8-5.3-0.8-8V0h10.9v55.5H506l-2.2-5.2h-0.5C500.9,54.2,497.1,56.2,492.1,56.2z M495.9,47.5
	c2.8,0,4.8-0.8,6.1-2.4s2-4.4,2.1-8.2v-1.2c0-4.3-0.7-7.3-2-9.2s-3.5-2.8-6.4-2.8c-2.3-0.1-4.5,1.1-5.6,3.1c-1.3,2-2,5-2,9
	c0,3.9,0.7,6.9,2,8.8C491.3,46.5,493.6,47.6,495.9,47.5z"/>
</svg>
