<svg id="Layer_1" data-name="Layer 1" xmlns="http://www.w3.org/2000/svg" viewBox="0 0 514.28 70.79"><defs><style>.cls-1{fill:#1d1d1b;}</style></defs><path class="cls-1" d="M14.72,74.7a24.32,24.32,0,0,1-6.52-.78v-9.2a21.9,21.9,0,0,0,5.21.71q3.63,0,5.2-2.26t1.57-7.08V7.26H31.23V56q0,9.13-4.17,13.9T14.72,74.7Z" transform="translate(-8.2 -3.91)"/><path class="cls-1" d="M68.8,59.37,66.69,54h-.28a16.06,16.06,0,0,1-5.65,4.79,18.27,18.27,0,0,1-7.57,1.34q-5.74,0-9-3.28t-3.3-9.34q0-6.34,4.44-9.36t13.38-3.33l6.92-.22V32.82q0-6.06-6.2-6.06a28.17,28.17,0,0,0-11.23,2.89l-3.6-7.35a32.41,32.41,0,0,1,15.26-3.6q8,0,12.29,3.5t4.28,10.62V59.37ZM65.59,40.91l-4.21.14q-4.74.15-7.05,1.71A5.37,5.37,0,0,0,52,47.54c0,3.06,1.76,4.6,5.27,4.6a8.38,8.38,0,0,0,6-2.18,7.66,7.66,0,0,0,2.26-5.77Z" transform="translate(-8.2 -3.91)"/><path class="cls-1" d="M103.76,60.09q-18.6,0-18.6-20.43,0-10.15,5.06-15.52t14.51-5.37a27.72,27.72,0,0,1,12.4,2.71l-3.21,8.41c-1.71-.68-3.3-1.25-4.77-1.69a15.43,15.43,0,0,0-4.42-.66q-8.49,0-8.49,12.05,0,11.69,8.49,11.69a19.33,19.33,0,0,0,5.81-.84,20.61,20.61,0,0,0,5.34-2.62v9.31a17.33,17.33,0,0,1-5.33,2.31A29.71,29.71,0,0,1,103.76,60.09Z" transform="translate(-8.2 -3.91)"/><path class="cls-1" d="M135.56,37.7l4.74-6.06,11.16-12.12h12.26L147.89,36.81l16.79,22.56H152.13L140.66,43.23,136,47v12.4H125.12V3.91H136V28.65l-.57,9.05Z" transform="translate(-8.2 -3.91)"/><path class="cls-1" d="M233.44,32.82q0,12.87-7.33,19.71T205,59.37H190.2V7.26h16.36q12.76,0,19.82,6.74T233.44,32.82ZM222,33.1q0-16.79-14.83-16.79h-5.88V50.25H206Q222,50.25,222,33.1Z" transform="translate(-8.2 -3.91)"/><path class="cls-1" d="M261.42,60.09q-9.63,0-15-5.32t-5.42-15q0-10,5-15.49t13.85-5.47q8.44,0,13.15,4.82c3.14,3.2,4.7,7.64,4.7,13.29v5.28H252a10.45,10.45,0,0,0,2.75,7.23,9.63,9.63,0,0,0,7.2,2.6,29.87,29.87,0,0,0,6.81-.74,34.33,34.33,0,0,0,6.7-2.39v8.41a25.31,25.31,0,0,1-6.1,2.12A38.6,38.6,0,0,1,261.42,60.09Zm-1.53-33.58a6.9,6.9,0,0,0-5.42,2.19,10.14,10.14,0,0,0-2.25,6.22h15.26a9.1,9.1,0,0,0-2.1-6.22A7.14,7.14,0,0,0,259.89,26.51Z" transform="translate(-8.2 -3.91)"/><path class="cls-1" d="M314.32,47.54q0,6.14-4.26,9.34t-12.75,3.21a40.18,40.18,0,0,1-7.41-.59,28,28,0,0,1-5.74-1.73v-9A37.89,37.89,0,0,0,291,51.17a27.28,27.28,0,0,0,6.68,1q5.93,0,5.92-3.43a2.84,2.84,0,0,0-.79-2.08,11.39,11.39,0,0,0-2.71-1.82q-1.92-1-5.13-2.37a32.15,32.15,0,0,1-6.75-3.56,10.07,10.07,0,0,1-3.14-3.76,12.52,12.52,0,0,1-1-5.23,9.45,9.45,0,0,1,4.12-8.21q4.11-2.91,11.67-2.91a33.17,33.17,0,0,1,14,3.14l-3.28,7.84c-2-.85-3.86-1.55-5.6-2.1a17.42,17.42,0,0,0-5.31-.82q-4.81,0-4.81,2.6A3.05,3.05,0,0,0,296.44,32a42.28,42.28,0,0,0,6.79,3.17,31.86,31.86,0,0,1,6.85,3.53,10.63,10.63,0,0,1,3.2,3.78A11.63,11.63,0,0,1,314.32,47.54Z" transform="translate(-8.2 -3.91)"/><path class="cls-1" d="M358.48,59.37H347.61V36.1c0-2.88-.48-5-1.44-6.47a5.09,5.09,0,0,0-4.55-2.16,6.57,6.57,0,0,0-6.06,3.07q-1.89,3.06-1.89,10.08V59.37H322.8V19.52h8.3l1.47,5.1h.6a11.11,11.11,0,0,1,4.64-4.3,15.07,15.07,0,0,1,6.95-1.55q8.94,0,12.12,5.85h1a10.76,10.76,0,0,1,4.72-4.31,15.66,15.66,0,0,1,7-1.54q6.78,0,10.25,3.48t3.48,11.14v26H372.42V36.1c0-2.88-.48-5-1.45-6.47a5.06,5.06,0,0,0-4.54-2.16,6.78,6.78,0,0,0-6,2.85q-2,2.85-2,9.06Z" transform="translate(-8.2 -3.91)"/><path class="cls-1" d="M430.7,39.38q0,9.72-5.14,15.22t-14.29,5.49a19.92,19.92,0,0,1-10.12-2.52,16.65,16.65,0,0,1-6.74-7.22,24.18,24.18,0,0,1-2.35-11q0-9.77,5.1-15.19t14.32-5.42a20.18,20.18,0,0,1,10.13,2.5,16.59,16.59,0,0,1,6.73,7.16A24,24,0,0,1,430.7,39.38Zm-27.56,0q0,5.91,1.95,8.94t6.32,3q4.35,0,6.26-3t1.91-9c0-4-.65-6.91-1.93-8.88s-3.39-3-6.31-3-5,1-6.27,2.94S403.14,35.41,403.14,39.38Z" transform="translate(-8.2 -3.91)"/><path class="cls-1" d="M476.46,59.37H465.59V36.1c0-2.88-.51-5-1.53-6.47a5.57,5.57,0,0,0-4.88-2.16c-3.05,0-5.24,1-6.6,3.05s-2,5.4-2,10.1V59.37H439.68V19.52H448l1.47,5.1h.6a11.46,11.46,0,0,1,5-4.37,17.14,17.14,0,0,1,7.25-1.48q7,0,10.55,3.76t3.6,10.86Z" transform="translate(-8.2 -3.91)"/><path class="cls-1" d="M500.27,60.09a12.94,12.94,0,0,1-11-5.46q-4-5.44-4-15.11t4.08-15.28a13.28,13.28,0,0,1,11.25-5.47q7.51,0,11.48,5.85h.35a45.06,45.06,0,0,1-.82-7.95V3.91h10.91V59.37h-8.34L512,54.2h-.47Q507.87,60.08,500.27,60.09Zm3.82-8.67c2.78,0,4.82-.8,6.11-2.42s2-4.36,2.12-8.23V39.59c0-4.28-.66-7.34-2-9.2s-3.46-2.78-6.43-2.78a6.38,6.38,0,0,0-5.65,3.09q-2,3.07-2,9c0,3.92.67,6.86,2,8.82A6.63,6.63,0,0,0,504.09,51.42Z" transform="translate(-8.2 -3.91)"/></svg>