<?xml version="1.0" encoding="utf-8"?>
<!-- Generator: Adobe Illustrator 24.1.0, SVG Export Plug-In . SVG Version: 6.00 Build 0)  -->
<svg version="1.1" id="Capa_1" xmlns="http://www.w3.org/2000/svg" xmlns:xlink="http://www.w3.org/1999/xlink" x="0px" y="0px"
	 viewBox="0 0 10 10" style="enable-background:new 0 0 10 10;" xml:space="preserve">
<g>
	<path d="M9.8,5.3L5,0.6C4.9,0.4,4.6,0.3,4.4,0.2C4.1,0.1,3.8,0,3.6,0H0.8C0.6,0,0.4,0.1,0.3,0.3C0.1,0.4,0,0.6,0,0.8v2.7
		c0,0.2,0.1,0.5,0.2,0.8C0.3,4.6,0.4,4.9,0.6,5l4.7,4.7C5.5,9.9,5.7,10,5.9,10c0.2,0,0.4-0.1,0.6-0.2l3.2-3.2C9.9,6.3,10,6.1,10,5.9
		C10,5.7,9.9,5.5,9.8,5.3z M2.7,2.7C2.5,2.9,2.3,3,2.1,3C1.9,3,1.7,2.9,1.5,2.7C1.3,2.5,1.3,2.3,1.3,2.1c0-0.2,0.1-0.4,0.2-0.6
		c0.2-0.2,0.4-0.2,0.6-0.2c0.2,0,0.4,0.1,0.6,0.2C2.9,1.7,3,1.9,3,2.1C3,2.3,2.9,2.5,2.7,2.7z"/>
</g>
</svg>
