<?xml version="1.0" encoding="utf-8"?>
<!-- Generator: Adobe Illustrator 25.0.0, SVG Export Plug-In . SVG Version: 6.00 Build 0)  -->
<svg version="1.1" id="Bold" xmlns="http://www.w3.org/2000/svg" xmlns:xlink="http://www.w3.org/1999/xlink" x="0px" y="0px"
	 viewBox="0 0 50 50" style="enable-background:new 0 0 50 50;" xml:space="preserve">
<style type="text/css">
	.st0{fill:#FFFFFF;}
</style>
<path class="st0" d="M42,4c-6.7-0.2-11.2,3.6-13.6,11.4c1.2-0.5,2.4-0.8,3.6-0.8c2.4,0,3.5,1.4,3.2,4.2c-0.1,1.7-1.2,4.1-3.2,7.3
	c-2,3.2-3.5,4.8-4.5,4.8c-3.1,0-4.9-14.6-5.5-18.6c-0.9-5.5-3.2-8.1-6.9-7.8c-3.4,0.3-9.4,6.5-14.1,10.7l2.3,3
	c2.2-1.5,3.4-2.3,3.8-2.3c3.8,0,5.6,12.8,8.5,22.3c2,5.2,4.3,7.9,7.1,7.9c4.5,0,10.1-4.3,16.6-12.9c6.3-8.2,9.6-14.7,9.8-19.5l0,0
	C49.3,7.3,47,4.1,42,4L42,4z"/>
</svg>
